# Blender v2.79 (sub 0) OBJ File: ''
# www.blender.org
mtllib linked.mtl
o Linkedin.Svg_5Mm
v -0.710935 0.300684 -0.250000
v -0.387334 0.300684 -0.250000
v -0.387334 0.300684 0.250000
v -0.710935 0.300684 0.250000
v -1.446057 0.402927 -0.250000
v -1.342456 0.676068 -0.250000
v -1.494843 0.110351 -0.250000
v -1.245401 0.839981 -0.250000
v -1.126931 0.990150 -0.250000
v -0.990078 1.124466 -0.250000
v -0.837912 1.241009 -0.250000
v -0.673467 1.337709 -0.250000
v -0.499775 1.412571 -0.250000
v -0.319832 1.463489 -0.250000
v -0.136819 1.488431 -0.250000
v 0.092465 1.490538 -0.250000
v 0.299076 1.467258 -0.250000
v -0.524113 0.779973 -0.250000
v 0.491891 1.416784 -0.250000
v -0.432643 0.742801 -0.250000
v 0.679527 1.337265 -0.250000
v -0.401944 0.707365 -0.250000
v 0.826810 1.252685 -0.250000
v -0.374536 0.641482 -0.250000
v 0.962775 1.152327 -0.250000
v 1.086165 1.037705 -0.250000
v 1.195943 0.910336 -0.250000
v 1.290927 0.771696 -0.250000
v 1.370005 0.623265 -0.250000
v 1.432033 0.466409 -0.250000
v 0.653414 0.259632 -0.250000
v 1.475974 0.302753 -0.250000
v 0.783461 0.113455 -0.250000
v 1.505157 0.076873 -0.250000
v 0.813643 -0.006414 -0.250000
v 1.500533 -0.147086 -0.250000
v 0.824295 -0.146901 -0.250000
v 1.463583 -0.365613 -0.250000
v 0.520852 -0.690004 -0.250000
v 1.298287 -0.772146 -0.250000
v 1.172826 -0.952946 -0.250000
v 0.145061 -0.690004 -0.250000
v 1.020735 -1.114162 -0.250000
v 0.843381 -1.252100 -0.250000
v -0.178541 -0.690004 -0.250000
v 0.643945 -1.364393 -0.250000
v -0.387334 -0.690004 -0.250000
v 0.435337 -1.444762 -0.250000
v -0.710935 -0.690004 -0.250000
v 0.220552 -1.493056 -0.250000
v 0.002808 -1.509462 -0.250000
v -0.214899 -1.493869 -0.250000
v -0.429314 -1.446313 -0.250000
v -0.637479 -1.366795 -0.250000
v -0.836174 -1.255315 -0.250000
v -0.929789 -1.183519 -0.250000
v -1.035462 -1.088112 -0.250000
v -1.136992 -0.984539 -0.250000
v -1.218252 -0.888171 -0.250000
v -1.277876 -0.799194 -0.250000
v -1.336501 -0.694069 -0.250000
v -1.387654 -0.585618 -0.250000
v -1.424900 -0.486738 -0.250000
v -1.488075 -0.190023 -0.250000
v -0.710676 0.680539 -0.250000
v -0.701208 0.699236 -0.250000
v -0.465599 0.765747 -0.250000
v -0.669805 0.507831 -0.250000
v -0.695549 0.538574 -0.250000
v -0.588803 0.466815 -0.250000
v -0.632633 0.484182 -0.250000
v -0.378753 0.578185 -0.250000
v -0.550484 0.459942 -0.250000
v -0.413114 0.522130 -0.250000
v -0.514015 0.463637 -0.250000
v -0.476066 0.477863 -0.250000
v -0.710713 0.577372 -0.250000
v -0.582700 0.776315 -0.250000
v -0.637515 0.755660 -0.250000
v -0.684822 0.718820 -0.250000
v -0.715041 0.657592 -0.250000
v -0.716113 0.625001 -0.250000
v -0.178541 0.300684 -0.250000
v 0.830842 -0.363618 -0.250000
v 1.395711 -0.575198 -0.250000
v 0.697207 0.222201 -0.250000
v 0.407818 0.058952 -0.250000
v 0.259574 0.064199 -0.250000
v 0.386144 0.066305 -0.250000
v 0.285946 0.070259 -0.250000
v 0.359772 0.070185 -0.250000
v 0.145061 0.300684 -0.250000
v 0.206645 0.208861 -0.250000
v 0.145061 0.152511 -0.250000
v 0.427940 0.047239 -0.250000
v 0.235236 0.048421 -0.250000
v 0.453424 0.025955 -0.250000
v 0.201430 0.018084 -0.250000
v 0.490078 -0.039855 -0.250000
v 0.473952 -0.002128 -0.250000
v 0.510754 -0.154956 -0.250000
v 0.145061 -0.036159 -0.250000
v 0.502136 -0.089886 -0.250000
v 0.837130 -0.690004 -0.250000
v 0.520852 -0.467893 -0.250000
v 0.516413 -0.237800 -0.250000
v 0.519631 -0.341225 -0.250000
v 0.827883 -0.244192 -0.250000
v 0.819635 -0.068602 -0.250000
v 0.805839 0.042657 -0.250000
v 0.795889 0.081640 -0.250000
v 0.768222 0.141094 -0.250000
v 0.737893 0.180520 -0.250000
v 0.270152 0.263253 -0.250000
v 0.613727 0.286052 -0.250000
v 0.591053 0.294366 -0.250000
v 0.560761 0.300573 -0.250000
v 0.520630 0.305007 -0.250000
v 0.468663 0.307964 -0.250000
v 0.386292 0.307040 -0.250000
v 0.325078 0.294033 -0.250000
v 0.325633 0.071257 -0.250000
v -0.710935 -0.690004 0.250000
v -1.494843 0.110351 0.250000
v -1.488075 -0.190023 0.250000
v -1.424900 -0.486738 0.250000
v -1.336501 -0.694069 0.250000
v -1.387654 -0.585618 0.250000
v -1.277876 -0.799194 0.250000
v -1.218252 -0.888171 0.250000
v -1.136992 -0.984539 0.250000
v -1.035462 -1.088112 0.250000
v -0.929789 -1.183519 0.250000
v -0.836174 -1.255315 0.250000
v -0.637479 -1.366795 0.250000
v -0.429314 -1.446313 0.250000
v -0.214899 -1.493869 0.250000
v 0.002808 -1.509462 0.250000
v 1.370005 0.623265 0.250000
v -0.178541 0.300684 0.250000
v 0.145061 0.300684 0.250000
v 1.432033 0.466409 0.250000
v 0.206645 0.208861 0.250000
v 0.270152 0.263253 0.250000
v 1.086165 1.037705 0.250000
v 1.195943 0.910336 0.250000
v -0.514015 0.463637 0.250000
v -0.550484 0.459942 0.250000
v -0.374536 0.641482 0.250000
v -0.378753 0.578185 0.250000
v 0.962775 1.152327 0.250000
v 0.092465 1.490538 0.250000
v 0.299076 1.467258 0.250000
v -0.136819 1.488431 0.250000
v -0.319832 1.463489 0.250000
v -0.499775 1.412571 0.250000
v -0.673467 1.337709 0.250000
v -0.837912 1.241009 0.250000
v -0.990078 1.124466 0.250000
v -1.126931 0.990150 0.250000
v -1.245401 0.839981 0.250000
v -1.342456 0.676068 0.250000
v -1.446057 0.402927 0.250000
v -0.432643 0.742801 0.250000
v -0.401944 0.707365 0.250000
v 0.679527 1.337265 0.250000
v -0.715041 0.657592 0.250000
v -0.716113 0.625001 0.250000
v -0.524113 0.779973 0.250000
v -0.465599 0.765747 0.250000
v 0.491891 1.416784 0.250000
v -0.710676 0.680539 0.250000
v -0.701208 0.699236 0.250000
v -0.684822 0.718820 0.250000
v -0.582700 0.776315 0.250000
v -0.637515 0.755660 0.250000
v 0.826810 1.252685 0.250000
v -0.669805 0.507831 0.250000
v -0.695549 0.538574 0.250000
v -0.413114 0.522130 0.250000
v -0.476066 0.477863 0.250000
v -0.588803 0.466815 0.250000
v -0.632633 0.484182 0.250000
v -0.710713 0.577372 0.250000
v -0.387334 -0.690004 0.250000
v 0.220552 -1.493056 0.250000
v 1.290927 0.771696 0.250000
v 0.145061 0.152511 0.250000
v 0.643945 -1.364393 0.250000
v 0.435337 -1.444762 0.250000
v 0.843381 -1.252100 0.250000
v -0.178541 -0.690004 0.250000
v 0.325078 0.294033 0.250000
v 0.386292 0.307040 0.250000
v 0.468663 0.307964 0.250000
v 0.520630 0.305007 0.250000
v 1.475974 0.302753 0.250000
v 0.145061 -0.036159 0.250000
v 0.519631 -0.341225 0.250000
v 0.516413 -0.237800 0.250000
v 0.653414 0.259632 0.250000
v 0.697207 0.222201 0.250000
v 0.613727 0.286052 0.250000
v 0.560761 0.300573 0.250000
v 0.591053 0.294366 0.250000
v 0.819635 -0.068602 0.250000
v 0.824295 -0.146901 0.250000
v 1.500533 -0.147086 0.250000
v 0.768222 0.141094 0.250000
v 0.783461 0.113454 0.250000
v 1.505157 0.076873 0.250000
v 0.737893 0.180520 0.250000
v 0.502136 -0.089886 0.250000
v 0.490078 -0.039855 0.250000
v 0.795889 0.081640 0.250000
v 0.805839 0.042657 0.250000
v 0.813643 -0.006414 0.250000
v 1.463583 -0.365613 0.250000
v 0.827883 -0.244192 0.250000
v 0.830842 -0.363618 0.250000
v 1.395711 -0.575198 0.250000
v 1.298287 -0.772146 0.250000
v 0.837130 -0.690004 0.250000
v 1.172826 -0.952946 0.250000
v 0.520852 -0.690004 0.250000
v 0.510754 -0.154956 0.250000
v 0.145061 -0.690004 0.250000
v 1.020735 -1.114162 0.250000
v 0.359772 0.070185 0.250000
v 0.285946 0.070259 0.250000
v 0.386144 0.066305 0.250000
v 0.259574 0.064199 0.250000
v 0.407818 0.058952 0.250000
v 0.427940 0.047239 0.250000
v 0.235236 0.048421 0.250000
v 0.453424 0.025955 0.250000
v 0.325633 0.071257 0.250000
v 0.520852 -0.467893 0.250000
v 0.201430 0.018084 0.250000
v 0.473952 -0.002128 0.250000
vn 0.0000 -1.0000 0.0000
vn 0.0000 0.0000 -1.0000
vn 1.0000 0.0000 0.0000
vn 0.0000 0.0000 1.0000
vn 0.0001 0.0000 1.0000
vn -1.0000 -0.0000 0.0000
vn -0.9997 -0.0225 -0.0000
vn -0.9864 0.1645 0.0000
vn -0.9781 -0.2082 0.0000
vn -0.9358 -0.3525 0.0000
vn -0.9044 -0.4266 0.0000
vn -0.8734 -0.4871 0.0000
vn -0.8307 -0.5567 0.0000
vn -0.7645 -0.6446 0.0000
vn -0.7141 -0.7000 0.0000
vn -0.6701 -0.7422 0.0000
vn -0.6086 -0.7935 0.0000
vn -0.4893 -0.8721 0.0000
vn -0.3568 -0.9342 0.0000
vn -0.2165 -0.9763 0.0000
vn -0.0714 -0.9974 0.0000
vn 0.0751 -0.9972 0.0000
vn 0.2194 -0.9756 0.0000
vn 0.3595 -0.9331 0.0000
vn 0.4906 -0.8714 0.0000
vn 0.6139 -0.7894 0.0000
vn 0.7274 -0.6862 0.0000
vn 0.8216 -0.5701 0.0000
vn 0.8963 -0.4434 0.0000
vn 0.9514 -0.3081 0.0000
vn 0.9860 -0.1667 -0.0000
vn 0.9998 -0.0206 -0.0000
vn 0.9918 0.1281 0.0000
vn 0.9658 0.2593 0.0000
vn 0.9299 0.3677 0.0000
vn 0.8826 0.4702 0.0000
vn 0.8250 0.5652 0.0000
vn 0.7575 0.6529 0.0000
vn 0.6806 0.7327 0.0000
vn 0.5939 0.8046 0.0000
vn 0.4980 0.8672 0.0000
vn 0.3902 0.9207 0.0000
vn 0.2532 0.9674 0.0000
vn 0.1120 0.9937 0.0000
vn -0.0092 1.0000 0.0000
vn -0.1350 0.9908 0.0000
vn -0.2723 0.9622 0.0000
vn -0.3958 0.9183 0.0000
vn -0.5069 0.8620 0.0000
vn -0.6080 0.7939 0.0000
vn -0.7005 0.7137 0.0000
vn -0.7851 0.6194 0.0000
vn -0.8605 0.5095 0.0000
vn -0.9350 0.3546 0.0000
vn 0.9936 0.1127 0.0000
vn 0.9995 -0.0329 0.0000
vn 0.9824 -0.1869 0.0000
vn 0.8921 -0.4518 0.0000
vn 0.7670 -0.6417 0.0000
vn 0.6144 -0.7890 0.0000
vn 0.3526 -0.9358 0.0000
vn 0.0623 -0.9981 0.0000
vn -0.2362 -0.9717 0.0000
vn -0.5714 -0.8207 0.0000
vn -0.7558 -0.6548 0.0000
vn -0.9233 -0.3841 0.0000
vn -0.9978 0.0665 0.0000
vn -0.8526 0.5226 0.0000
vn -0.5752 0.8180 0.0000
vn -0.3510 0.9364 0.0000
vn -0.1008 0.9949 0.0000
vn 0.1765 0.9843 0.0000
vn 0.3684 0.9297 0.0000
vn 0.5368 0.8437 0.0000
vn 0.7667 0.6420 0.0000
vn 0.9314 0.3640 0.0000
vn 0.0000 1.0000 0.0000
vn 0.6751 -0.7378 0.0000
vn 0.6505 -0.7595 0.0000
vn 0.4889 -0.8724 0.0000
vn 0.2078 -0.9782 0.0000
vn 0.0112 -0.9999 0.0000
vn -0.0568 -0.9984 0.0000
vn -0.1098 -0.9940 0.0000
vn -0.2008 -0.9796 0.0000
vn -0.3443 -0.9389 0.0000
vn -0.5541 -0.8324 0.0000
vn -0.6497 -0.7602 -0.0000
vn -0.7156 -0.6985 0.0000
vn -0.7926 -0.6097 -0.0000
vn -0.8757 -0.4828 0.0000
vn -0.9315 -0.3639 0.0000
vn -0.9689 -0.2473 -0.0000
vn -0.9876 -0.1571 -0.0000
vn -0.9954 -0.0959 -0.0000
vn -0.9982 -0.0594 -0.0000
vn -0.9993 -0.0369 -0.0000
vn -0.9997 -0.0248 0.0000
vn -0.9998 -0.0193 0.0000
vn 1.0000 0.0096 0.0000
vn 0.9995 0.0311 0.0000
vn 0.9977 0.0682 0.0000
vn 0.9913 0.1313 0.0000
vn 0.9722 0.2343 0.0000
vn 0.9195 0.3930 0.0000
vn 0.8073 0.5901 0.0000
vn 0.6410 0.7675 0.0000
vn 0.5031 0.8642 0.0000
vn 0.3213 0.9470 0.0000
vn 0.1456 0.9894 0.0000
vn 0.0314 0.9995 0.0000
vn -0.0251 0.9997 0.0000
vn -0.2239 0.9746 0.0000
vn -0.5440 0.8391 0.0000
vn -0.6679 0.7443 0.0000
vn -0.6934 0.7206 0.0000
usemtl None
s off
f 1//1 2//1 3//1
f 4//1 1//1 3//1
f 5//2 6//2 7//2
f 7//2 6//2 8//2
f 7//2 8//2 9//2
f 7//2 9//2 10//2
f 7//2 10//2 11//2
f 7//2 11//2 12//2
f 7//2 12//2 13//2
f 7//2 13//2 14//2
f 7//2 14//2 15//2
f 7//2 15//2 16//2
f 7//2 16//2 17//2
f 18//2 17//2 19//2
f 20//2 19//2 21//2
f 22//2 21//2 23//2
f 24//2 23//2 25//2
f 7//2 26//2 27//2
f 1//2 27//2 28//2
f 2//2 29//2 30//2
f 31//2 30//2 32//2
f 33//2 32//2 34//2
f 35//2 34//2 36//2
f 37//2 36//2 38//2
f 39//2 40//2 41//2
f 42//2 43//2 44//2
f 45//2 44//2 46//2
f 47//2 46//2 48//2
f 49//2 50//2 51//2
f 7//2 51//2 52//2
f 7//2 52//2 53//2
f 7//2 53//2 54//2
f 7//2 54//2 55//2
f 7//2 55//2 56//2
f 7//2 56//2 57//2
f 7//2 57//2 58//2
f 7//2 58//2 59//2
f 7//2 59//2 60//2
f 7//2 60//2 61//2
f 7//2 61//2 62//2
f 7//2 62//2 63//2
f 7//2 63//2 64//2
f 65//2 7//2 66//2
f 18//2 19//2 67//2
f 68//2 7//2 69//2
f 70//2 7//2 71//2
f 7//2 68//2 71//2
f 24//2 25//2 72//2
f 7//2 70//2 73//2
f 72//2 26//2 74//2
f 7//2 73//2 75//2
f 7//2 75//2 26//2
f 75//2 76//2 26//2
f 72//2 25//2 26//2
f 74//2 26//2 76//2
f 22//2 23//2 24//2
f 1//2 29//2 2//2
f 20//2 21//2 22//2
f 67//2 19//2 20//2
f 69//2 7//2 77//2
f 78//2 17//2 18//2
f 79//2 17//2 78//2
f 7//2 17//2 79//2
f 7//2 79//2 80//2
f 7//2 80//2 66//2
f 1//2 28//2 29//2
f 49//2 7//2 1//2
f 7//2 65//2 81//2
f 7//2 81//2 82//2
f 7//2 49//2 51//2
f 83//2 2//2 30//2
f 7//2 27//2 1//2
f 84//2 85//2 40//2
f 31//2 32//2 86//2
f 87//2 88//2 89//2
f 90//2 91//2 88//2
f 92//2 93//2 94//2
f 91//2 89//2 88//2
f 95//2 96//2 87//2
f 88//2 87//2 96//2
f 97//2 98//2 95//2
f 96//2 95//2 98//2
f 99//2 98//2 100//2
f 98//2 97//2 100//2
f 101//2 102//2 103//2
f 84//2 40//2 104//2
f 102//2 105//2 39//2
f 102//2 39//2 42//2
f 39//2 43//2 42//2
f 104//2 40//2 39//2
f 102//2 106//2 107//2
f 108//2 38//2 85//2
f 2//2 45//2 47//2
f 109//2 36//2 37//2
f 103//2 102//2 99//2
f 35//2 36//2 109//2
f 110//2 34//2 35//2
f 111//2 34//2 110//2
f 112//2 32//2 33//2
f 113//2 32//2 112//2
f 86//2 32//2 113//2
f 92//2 114//2 93//2
f 115//2 30//2 31//2
f 116//2 30//2 115//2
f 117//2 30//2 116//2
f 118//2 30//2 117//2
f 119//2 30//2 118//2
f 120//2 30//2 119//2
f 92//2 30//2 120//2
f 77//2 7//2 82//2
f 83//2 30//2 92//2
f 92//2 120//2 121//2
f 45//2 2//2 83//2
f 92//2 121//2 114//2
f 33//2 34//2 111//2
f 98//2 99//2 102//2
f 37//2 38//2 108//2
f 102//2 101//2 106//2
f 102//2 107//2 105//2
f 91//2 90//2 122//2
f 108//2 85//2 84//2
f 39//2 41//2 43//2
f 42//2 44//2 45//2
f 45//2 46//2 47//2
f 47//2 48//2 50//2
f 47//2 50//2 49//2
f 49//3 1//3 4//3
f 123//3 49//3 4//3
f 124//4 125//4 126//4
f 127//4 124//4 128//4
f 128//4 124//4 126//4
f 129//4 124//4 127//4
f 130//4 124//4 129//4
f 131//4 124//4 130//4
f 132//4 124//4 131//4
f 133//4 124//4 132//4
f 134//4 124//4 133//4
f 135//4 124//4 134//4
f 136//4 124//4 135//4
f 137//4 124//4 136//4
f 138//4 124//4 137//4
f 123//4 124//4 138//4
f 4//4 3//4 139//4
f 140//4 141//4 142//4
f 141//4 143//4 144//4
f 145//4 124//4 146//4
f 147//4 124//4 145//4
f 147//4 148//4 124//4
f 149//4 150//4 151//4
f 152//4 124//4 153//4
f 154//4 124//4 152//4
f 155//4 124//4 154//4
f 156//4 124//4 155//4
f 157//4 124//4 156//4
f 158//4 124//4 157//4
f 159//4 124//4 158//4
f 160//4 124//4 159//4
f 161//4 124//4 160//4
f 162//4 124//4 161//4
f 163//4 124//4 162//4
f 164//4 165//4 166//4
f 167//4 124//4 168//4
f 169//4 170//4 171//4
f 172//4 124//4 167//4
f 173//4 124//4 172//4
f 174//4 124//4 173//4
f 175//4 169//4 153//4
f 176//5 124//5 174//5
f 165//4 149//4 177//4
f 153//4 124//4 176//4
f 153//4 169//4 171//4
f 171//4 170//4 166//4
f 170//4 164//4 166//4
f 166//4 165//4 177//4
f 178//4 179//4 124//4
f 177//4 149//4 151//4
f 151//4 150//4 145//4
f 150//4 180//4 145//4
f 180//4 181//4 145//4
f 181//4 147//4 145//4
f 148//4 182//4 124//4
f 182//4 183//4 124//4
f 183//4 178//4 124//4
f 179//4 184//4 124//4
f 185//4 123//4 186//4
f 186//4 123//4 138//4
f 4//4 139//4 187//4
f 146//4 4//4 187//4
f 146//4 124//4 4//4
f 139//4 3//4 142//4
f 141//4 188//4 143//4
f 189//4 185//4 190//4
f 191//4 192//4 189//4
f 3//4 140//4 142//4
f 193//4 194//4 141//4
f 195//4 196//4 197//4
f 198//4 199//4 200//4
f 201//4 202//4 197//4
f 203//4 201//4 197//4
f 141//4 144//4 193//4
f 204//4 205//4 197//4
f 142//4 141//4 194//4
f 142//4 195//4 197//4
f 142//4 194//4 195//4
f 206//4 207//4 208//4
f 205//4 203//4 197//4
f 209//4 210//4 211//4
f 197//4 212//4 211//4
f 212//4 209//4 211//4
f 213//4 214//4 198//4
f 211//4 215//4 208//4
f 215//4 216//4 208//4
f 216//4 217//4 208//4
f 217//4 206//4 208//4
f 208//4 207//4 218//4
f 207//4 219//4 218//4
f 218//4 220//4 221//4
f 222//4 223//4 224//4
f 223//4 225//4 224//4
f 226//4 213//4 198//4
f 3//4 185//4 192//4
f 225//4 227//4 228//4
f 229//4 230//4 231//4
f 231//4 232//4 233//4
f 234//4 235//4 236//4
f 234//4 233//4 232//4
f 219//4 220//4 218//4
f 228//4 227//4 191//4
f 185//4 186//4 190//4
f 184//4 168//4 124//4
f 176//4 175//4 153//4
f 202//4 212//4 197//4
f 210//4 215//4 211//4
f 237//4 230//4 229//4
f 192//4 140//4 3//4
f 230//4 232//4 231//4
f 198//4 225//4 238//4
f 232//4 235//4 234//4
f 235//4 239//4 236//4
f 239//4 214//4 240//4
f 220//4 223//4 222//4
f 220//4 222//4 221//4
f 239//4 198//4 214//4
f 240//4 236//4 239//4
f 198//4 200//4 226//4
f 198//4 238//4 199//4
f 198//4 227//4 225//4
f 225//4 228//4 224//4
f 227//4 192//4 191//4
f 196//4 204//4 197//4
f 192//4 185//4 189//4
f 123//4 4//4 124//4
f 185//6 3//6 47//6
f 47//6 3//6 2//6
f 64//7 125//7 7//7
f 7//7 125//7 124//7
f 124//8 163//8 7//8
f 7//8 163//8 5//8
f 63//9 126//9 64//9
f 64//9 126//9 125//9
f 62//10 128//10 63//10
f 63//10 128//10 126//10
f 61//11 127//11 62//11
f 62//11 127//11 128//11
f 60//12 129//12 61//12
f 61//12 129//12 127//12
f 59//13 130//13 60//13
f 60//13 130//13 129//13
f 58//14 131//14 59//14
f 59//14 131//14 130//14
f 57//15 132//15 58//15
f 58//15 132//15 131//15
f 57//16 56//16 133//16
f 132//16 57//16 133//16
f 56//17 55//17 134//17
f 133//17 56//17 134//17
f 55//18 54//18 135//18
f 134//18 55//18 135//18
f 54//19 53//19 136//19
f 135//19 54//19 136//19
f 53//20 52//20 137//20
f 136//20 53//20 137//20
f 52//21 51//21 138//21
f 137//21 52//21 138//21
f 51//22 50//22 186//22
f 138//22 51//22 186//22
f 50//23 48//23 190//23
f 186//23 50//23 190//23
f 48//24 46//24 189//24
f 190//24 48//24 189//24
f 46//25 44//25 191//25
f 189//25 46//25 191//25
f 44//26 43//26 228//26
f 191//26 44//26 228//26
f 43//27 41//27 224//27
f 228//27 43//27 224//27
f 41//28 40//28 222//28
f 224//28 41//28 222//28
f 40//29 85//29 221//29
f 222//29 40//29 221//29
f 85//30 38//30 218//30
f 221//30 85//30 218//30
f 38//31 36//31 208//31
f 218//31 38//31 208//31
f 36//32 34//32 211//32
f 208//32 36//32 211//32
f 32//33 197//33 211//33
f 34//33 32//33 211//33
f 30//34 142//34 197//34
f 32//34 30//34 197//34
f 29//35 139//35 142//35
f 30//35 29//35 142//35
f 28//36 187//36 139//36
f 29//36 28//36 139//36
f 27//37 146//37 187//37
f 28//37 27//37 187//37
f 26//38 145//38 146//38
f 27//38 26//38 146//38
f 151//39 145//39 25//39
f 25//39 145//39 26//39
f 177//40 151//40 23//40
f 23//40 151//40 25//40
f 166//41 177//41 21//41
f 21//41 177//41 23//41
f 171//42 166//42 19//42
f 19//42 166//42 21//42
f 153//43 171//43 17//43
f 17//43 171//43 19//43
f 152//44 153//44 16//44
f 16//44 153//44 17//44
f 154//45 152//45 15//45
f 15//45 152//45 16//45
f 155//46 154//46 14//46
f 14//46 154//46 15//46
f 156//47 155//47 13//47
f 13//47 155//47 14//47
f 157//48 156//48 12//48
f 12//48 156//48 13//48
f 158//49 157//49 11//49
f 11//49 157//49 12//49
f 159//50 158//50 10//50
f 10//50 158//50 11//50
f 160//51 159//51 9//51
f 9//51 159//51 10//51
f 161//52 160//52 8//52
f 8//52 160//52 9//52
f 162//53 161//53 6//53
f 6//53 161//53 8//53
f 163//54 162//54 5//54
f 5//54 162//54 6//54
f 82//55 168//55 184//55
f 77//55 82//55 184//55
f 82//56 81//56 167//56
f 168//56 82//56 167//56
f 81//57 65//57 172//57
f 167//57 81//57 172//57
f 65//58 66//58 173//58
f 172//58 65//58 173//58
f 66//59 80//59 174//59
f 173//59 66//59 174//59
f 80//60 79//60 176//60
f 174//60 80//60 176//60
f 79//61 78//61 175//61
f 176//61 79//61 175//61
f 78//62 18//62 169//62
f 175//62 78//62 169//62
f 18//63 67//63 170//63
f 169//63 18//63 170//63
f 67//64 20//64 164//64
f 170//64 67//64 164//64
f 22//65 165//65 20//65
f 20//65 165//65 164//65
f 24//66 149//66 22//66
f 22//66 149//66 165//66
f 150//67 149//67 72//67
f 72//67 149//67 24//67
f 180//68 150//68 74//68
f 74//68 150//68 72//68
f 181//69 180//69 76//69
f 76//69 180//69 74//69
f 147//70 181//70 75//70
f 75//70 181//70 76//70
f 148//71 147//71 73//71
f 73//71 147//71 75//71
f 182//72 148//72 70//72
f 70//72 148//72 73//72
f 183//73 182//73 71//73
f 71//73 182//73 70//73
f 178//74 183//74 68//74
f 68//74 183//74 71//74
f 69//75 179//75 178//75
f 68//75 69//75 178//75
f 77//76 184//76 179//76
f 69//76 77//76 179//76
f 123//77 185//77 49//77
f 49//77 185//77 47//77
f 192//77 227//77 45//77
f 45//77 227//77 42//77
f 45//3 83//3 140//3
f 192//3 45//3 140//3
f 83//1 92//1 141//1
f 140//1 83//1 141//1
f 188//6 141//6 94//6
f 94//6 141//6 92//6
f 94//78 93//78 143//78
f 188//78 94//78 143//78
f 93//79 114//79 144//79
f 143//79 93//79 144//79
f 114//80 121//80 193//80
f 144//80 114//80 193//80
f 121//81 120//81 194//81
f 193//81 121//81 194//81
f 120//82 119//82 195//82
f 194//82 120//82 195//82
f 119//83 118//83 196//83
f 195//83 119//83 196//83
f 118//84 117//84 204//84
f 196//84 118//84 204//84
f 117//85 116//85 205//85
f 204//85 117//85 205//85
f 116//86 115//86 203//86
f 205//86 116//86 203//86
f 115//87 31//87 201//87
f 203//87 115//87 201//87
f 31//88 86//88 202//88
f 201//88 31//88 202//88
f 113//89 212//89 86//89
f 86//89 212//89 202//89
f 112//90 209//90 113//90
f 113//90 209//90 212//90
f 33//91 210//91 112//91
f 112//91 210//91 209//91
f 111//92 215//92 33//92
f 33//92 215//92 210//92
f 110//93 216//93 111//93
f 111//93 216//93 215//93
f 35//94 217//94 110//94
f 110//94 217//94 216//94
f 109//95 206//95 35//95
f 35//95 206//95 217//95
f 37//96 207//96 109//96
f 109//96 207//96 206//96
f 108//97 219//97 37//97
f 37//97 219//97 207//97
f 84//98 220//98 108//98
f 108//98 220//98 219//98
f 104//99 223//99 84//99
f 84//99 223//99 220//99
f 225//77 223//77 39//77
f 39//77 223//77 104//77
f 39//3 105//3 238//3
f 225//3 39//3 238//3
f 107//100 199//100 238//100
f 105//100 107//100 238//100
f 106//101 200//101 199//101
f 107//101 106//101 199//101
f 101//102 226//102 200//102
f 106//102 101//102 200//102
f 103//103 213//103 226//103
f 101//103 103//103 226//103
f 99//104 214//104 213//104
f 103//104 99//104 213//104
f 100//105 240//105 214//105
f 99//105 100//105 214//105
f 97//106 236//106 240//106
f 100//106 97//106 240//106
f 234//107 236//107 95//107
f 95//107 236//107 97//107
f 233//108 234//108 87//108
f 87//108 234//108 95//108
f 231//109 233//109 89//109
f 89//109 233//109 87//109
f 229//110 231//110 91//110
f 91//110 231//110 89//110
f 237//111 229//111 122//111
f 122//111 229//111 91//111
f 230//112 237//112 90//112
f 90//112 237//112 122//112
f 232//113 230//113 88//113
f 88//113 230//113 90//113
f 235//114 232//114 96//114
f 96//114 232//114 88//114
f 239//115 235//115 98//115
f 98//115 235//115 96//115
f 198//116 239//116 102//116
f 102//116 239//116 98//116
f 227//6 198//6 42//6
f 42//6 198//6 102//6
