<?xml version="1.0" standalone="no"?>
<!DOCTYPE svg PUBLIC "-//W3C//DTD SVG 20010904//EN"
 "http://www.w3.org/TR/2001/REC-SVG-20010904/DTD/svg10.dtd">
<svg version="1.0" xmlns="http://www.w3.org/2000/svg"
 width="70.000000pt" height="70.000000pt" viewBox="0 0 70.000000 70.000000"
 preserveAspectRatio="xMidYMid meet">
<metadata>
Created by potrace 1.11, written by Peter Selinger 2001-2013
</metadata>
<g transform="translate(0.000000,70.000000) scale(0.100000,-0.100000)"
fill="#000000" stroke="none">
<path d="M23 675 c-23 -24 -23 -27 -23 -325 l0 -301 25 -24 24 -25 301 0 301
0 24 25 25 24 0 301 0 301 -25 24 -24 25 -303 -1 -303 0 -22 -24z m67 -5 c0
-5 -4 -10 -10 -10 -5 0 -10 -11 -10 -25 0 -16 -6 -25 -15 -25 -13 0 -15 -36
-15 -260 0 -224 2 -260 15 -260 9 0 15 -9 15 -25 0 -14 5 -25 10 -25 6 0 10
-4 10 -10 0 -15 -39 -12 -56 4 -19 20 -21 609 -1 631 14 16 57 20 57 5z m300
-50 c0 -5 7 -10 15 -10 8 0 15 -4 15 -10 0 -6 -55 -10 -145 -10 -80 0 -145 2
-145 5 0 3 6 12 13 20 15 17 247 22 247 5z m206 -4 c23 -23 17 -26 -51 -26
-58 0 -65 2 -65 20 0 17 7 20 51 20 30 0 56 -6 65 -14z m-246 -146 c0 -5 -14
-10 -31 -10 -39 0 -59 -20 -59 -59 0 -26 4 -31 25 -31 14 0 25 -4 25 -10 0 -5
-14 -10 -31 -10 -41 0 -59 -21 -59 -69 0 -34 -3 -41 -20 -41 -11 0 -20 5 -20
10 0 6 5 10 10 10 6 0 10 25 10 55 0 30 5 55 10 55 6 0 10 11 10 25 0 14 5 25
10 25 6 0 10 9 10 20 0 11 -4 20 -10 20 -5 0 -10 5 -10 10 0 6 28 10 65 10 37
0 65 -4 65 -10z m150 0 c0 -5 7 -10 15 -10 8 0 15 -9 15 -20 0 -11 -7 -20 -15
-20 -8 0 -15 5 -15 10 0 6 -9 10 -20 10 -11 0 -20 5 -20 10 0 6 -9 10 -20 10
-11 0 -20 -4 -20 -10 0 -5 -7 -10 -15 -10 -8 0 -15 5 -15 10 0 6 7 10 15 10 8
0 15 5 15 10 0 6 18 10 40 10 22 0 40 -4 40 -10z m-80 -60 c0 -17 47 -60 65
-60 8 0 15 -9 15 -20 0 -11 -4 -20 -8 -20 -4 0 -14 9 -22 20 -8 11 -22 20 -32
20 -10 0 -18 5 -18 10 0 6 -7 10 -15 10 -9 0 -15 9 -15 25 0 16 6 25 15 25 8
0 15 -5 15 -10z m-50 -111 c0 -17 27 -39 49 -39 12 0 21 -4 21 -10 0 -14 38
-12 43 3 2 6 8 9 12 5 14 -14 -24 -38 -60 -38 -25 0 -43 8 -60 25 -25 24 -34
65 -15 65 6 0 10 -5 10 -11z"/>
</g>
</svg>
